<svg width="284" height="259" viewBox="0 0 284 259" fill="none" xmlns="http://www.w3.org/2000/svg">
<path d="M180.012 53.1868L179.767 53.1792C179.722 53.1777 179.675 53.1767 179.627 53.1757C179.579 53.1746 179.529 53.1735 179.479 53.172L179.137 53.1613L179.205 52.8261L187.94 9.16145L187.97 9.01115L188.111 8.95163L188.166 8.92863L180.012 53.1868ZM180.012 53.1868L180.06 52.9468M180.012 53.1868L180.06 52.9468M180.06 52.9468L188.824 9.13329L188.942 8.54338M180.06 52.9468L188.942 8.54338M188.942 8.54338L188.408 8.81958M188.942 8.54338L188.408 8.81958M188.408 8.81958C188.362 8.84314 188.321 8.86359 188.285 8.87883M188.408 8.81958L188.285 8.87883M188.285 8.87883C188.245 8.89525 188.204 8.91232 188.166 8.92849L188.285 8.87883ZM217.12 1.83106L217.176 1.55676L216.904 1.49123L216.903 1.491C216.811 1.46891 216.717 1.44624 216.624 1.42533L216.337 1.36066L216.277 1.64893L205.274 54.8474L205.208 55.1655L205.532 55.1941L205.556 55.1962L205.557 55.1963L205.626 55.2027L205.626 55.2028L205.628 55.2029C205.689 55.2086 205.754 55.2147 205.82 55.2192L206.071 55.2363L206.122 54.9892L217.12 1.83106ZM203.083 3.96069L202.612 4.11526C202.56 4.13247 202.508 4.15006 202.457 4.16725L202.456 4.16753L202.518 4.35324L202.456 4.16753C202.404 4.18492 202.354 4.20191 202.303 4.2184L202.143 4.27101L202.11 4.4365L192.255 53.6965L192.192 54.0134L192.514 54.0414L192.798 54.0661L193.056 54.0885L193.106 53.8346L202.986 4.44685L203.083 3.96069ZM172.817 55.3822L173.022 55.3523L173.06 55.1477L180.219 15.7599L180.342 15.0861L179.773 15.468L179.454 15.6826L179.352 15.7508L179.331 15.871L172.216 55.0108L172.168 55.2772L172.431 55.3431L172.605 55.3869L172.652 55.3987L172.701 55.3945L172.709 55.3938L172.709 55.3938L172.712 55.3935C172.74 55.3911 172.778 55.3878 172.817 55.3822ZM166.527 53.4733L166.734 53.4472L166.774 53.2431L174.003 17.1065L174.131 16.4667L173.571 16.8015L173.243 16.9974L173.133 17.0632L173.108 17.1889L165.925 53.0979L165.87 53.3743L166.145 53.4367L166.324 53.4775L166.367 53.4871L166.41 53.4839L166.418 53.4833L166.418 53.4833L166.421 53.4831C166.45 53.481 166.489 53.4781 166.527 53.4733ZM159.703 52.1981L159.648 52.4739L159.922 52.5368L160.197 52.5999L160.487 52.6664L160.546 52.3747L166.788 21.1717L166.906 20.585L166.373 20.8574C166.268 20.9112 166.162 20.9635 166.055 21.0166L165.927 21.0797L165.9 21.2191L159.703 52.1981ZM186.505 53.5397L186.759 53.557L186.809 53.3079L196.133 6.69141L196.231 6.20527L195.76 6.35983C195.656 6.39372 195.555 6.42686 195.455 6.4581L195.291 6.50914L195.257 6.67755L185.956 53.1732L185.892 53.4901L186.214 53.5181C186.308 53.5263 186.403 53.5328 186.494 53.5389L186.505 53.5397ZM199.506 54.6664L199.764 54.6888L199.814 54.4349L210.327 1.88536L210.429 1.37305L209.941 1.55812C209.863 1.58752 209.783 1.61625 209.702 1.64544L209.702 1.64548L209.634 1.67018L209.48 1.72556L209.448 1.88553L198.965 54.2951L198.903 54.6057L199.218 54.6394C199.314 54.6497 199.411 54.6582 199.506 54.6664ZM230.418 5.33289L230.458 5.14273L230.297 5.03359C230.234 4.99082 230.171 4.9512 230.113 4.91495L230.111 4.91389L229.976 5.13035L230.111 4.91388C230.085 4.89757 230.06 4.8816 230.035 4.86592L229.683 4.64219L229.597 5.05007L218.822 55.9215L218.754 56.2413L219.08 56.2696C219.094 56.2709 219.109 56.2721 219.123 56.2732C219.157 56.2761 219.191 56.2787 219.225 56.2813L219.226 56.2814L219.226 56.2814L219.307 56.2878L219.308 56.2879L219.365 56.2926L219.619 56.3139L219.672 56.0643L230.418 5.33289ZM212.546 55.7735L212.801 55.7957L212.854 55.5452L223.766 3.9417L223.816 3.70712L223.594 3.61487C223.505 3.57781 223.411 3.5399 223.318 3.50534L223.004 3.38951L222.934 3.71687L212.004 55.4044L211.935 55.7304L212.268 55.7528L212.269 55.7529C212.269 55.7529 212.269 55.7529 212.269 55.7529C212.363 55.7593 212.455 55.7656 212.546 55.7735ZM241.005 18.2791L241.022 18.1995L240.995 18.1227C240.935 17.9527 240.871 17.7811 240.804 17.6151L240.451 16.7369L240.253 17.6624L231.852 56.8982L231.782 57.2246L232.115 57.2474L232.399 57.2668L232.649 57.2838L232.702 57.0388L241.005 18.2791ZM226.087 56.8036L226.342 56.8258L226.395 56.5756L236.239 10.2695L236.27 10.1255L236.171 10.016L235.937 9.75508L235.557 9.3322L235.439 9.88826L225.545 56.4342L225.476 56.7602L225.808 56.7829C225.904 56.7894 225.996 56.7957 226.087 56.8036ZM248.752 17.2496L248.778 17.127L248.706 17.0243C248.669 16.9717 248.633 16.9186 248.596 16.865C248.559 16.8115 248.521 16.7575 248.484 16.7038L248.102 16.1558L247.964 16.8092L239.366 57.406L239.297 57.7318L239.629 57.7545C239.678 57.7578 239.727 57.7607 239.774 57.7635C239.774 57.7635 239.774 57.7635 239.774 57.7635L239.829 57.7668C239.858 57.7685 239.885 57.7702 239.913 57.7721L240.164 57.7892L240.216 57.5435L248.752 17.2496ZM252.757 58.3375C252.784 58.3383 252.812 58.3393 252.841 58.3404C252.841 58.3404 252.841 58.3404 252.841 58.3404L252.897 58.3427C252.945 58.3446 252.994 58.3466 253.043 58.3481L253.284 58.3556L253.335 58.1196L258.863 32.3113L258.88 32.2336L258.854 32.1584L258.765 31.8933C258.735 31.8047 258.706 31.716 258.676 31.6276L258.35 30.665L258.348 30.6777L258.336 30.6446L258.123 31.6401L258.12 31.6545L258.118 31.6633L258.101 31.7348L258.102 31.7385L252.483 57.9878L252.41 58.3267L252.757 58.3375ZM253.917 25.2114L253.945 25.0792L253.862 24.9728L253.785 24.8754L253.785 24.8751C253.734 24.8098 253.684 24.7464 253.636 24.6834L253.254 24.1826L253.123 24.7987L246.118 57.7572L246.046 58.0957L246.392 58.1065C246.438 58.1079 246.485 58.1098 246.533 58.1117C246.581 58.1136 246.63 58.1156 246.68 58.1172L246.921 58.1247L246.971 57.8882L253.917 25.2114ZM260.554 58.7359L260.809 58.7583L260.862 58.5077L264.28 42.3737L264.319 42.1894L264.166 42.0792C264.081 42.0178 264.002 41.961 263.928 41.9018L263.561 41.6104L263.464 42.0682L260.012 58.3649L259.945 58.685L260.271 58.713C260.318 58.7171 260.365 58.7207 260.41 58.7242L260.412 58.7244C260.461 58.7282 260.508 58.7318 260.554 58.7359Z" fill="#3BB3BD" stroke="#3BB3BD" stroke-width="0.578518"/>
<path d="M94.6177 212.229C94.5899 212.225 94.5524 212.219 94.5147 212.215L94.3174 212.194L94.235 212.374L79.6514 244.327L79.3932 244.893L79.9858 244.704L80.3326 244.594L80.449 244.557L80.4998 244.446L94.9913 212.694L95.1029 212.45L94.8615 212.332L94.7036 212.255L94.6665 212.237L94.6257 212.23L94.6177 212.229ZM94.6177 212.229L94.5746 212.501M94.6177 212.229L94.6177 212.229L94.5746 212.501M94.5746 212.501L94.5827 212.503L94.4801 212.486L94.4879 212.469L94.4897 212.465L94.5659 212.5C94.5688 212.5 94.5717 212.501 94.5746 212.501ZM8.42096 186.837L8.18903 186.761L8.08514 186.982L1.39797 201.207L1.32157 201.369L1.43934 201.505C1.50497 201.58 1.56558 201.65 1.62164 201.721L1.89784 202.071L2.08759 201.668L8.84265 187.3L8.97535 187.017L8.67895 186.92C8.63604 186.906 8.59359 186.893 8.55273 186.88L8.55228 186.88C8.50688 186.865 8.46353 186.851 8.42096 186.837ZM15.7472 189.291L15.8884 188.992L15.5693 188.906C15.5271 188.895 15.4844 188.883 15.4402 188.871L15.4397 188.871C15.3961 188.859 15.351 188.846 15.3061 188.834L15.0839 188.775L14.9855 188.983L4.23089 211.723L4.19854 211.792L4.20564 211.867L4.25573 212.398L4.34694 213.365L4.3534 213.352L4.35633 213.384L4.77063 212.508L4.77736 212.494L4.78115 212.487L4.81212 212.424L4.81198 212.421L15.7472 189.291ZM10.3293 227.902L10.2785 228.01L10.3226 228.121C10.3451 228.178 10.3675 228.235 10.3902 228.293L10.3903 228.293C10.4129 228.351 10.4357 228.409 10.4587 228.467L10.6936 229.058L10.9645 228.482L27.7905 192.69L27.9255 192.402L27.6222 192.309C27.5777 192.295 27.5334 192.282 27.4905 192.269L27.4898 192.269C27.4463 192.256 27.4041 192.243 27.3623 192.231L27.1335 192.16L27.0317 192.377L10.3293 227.902ZM17.7406 228.635L17.7075 228.705L17.7157 228.782C17.734 228.953 17.7568 229.126 17.7826 229.295L17.9187 230.187L18.3043 229.371L34.6509 194.798L34.7869 194.511L34.4829 194.417L34.2235 194.337L33.9952 194.267L33.8931 194.483L17.7406 228.635ZM24.7414 242.955L24.6626 243.122L24.788 243.258C24.8371 243.312 24.8872 243.362 24.933 243.409L24.9345 243.41C24.9553 243.431 24.9752 243.451 24.9948 243.471L25.2725 243.755L25.4415 243.396L46.527 198.545L46.6596 198.263L46.3636 198.165C46.3191 198.151 46.2748 198.137 46.2319 198.123C46.1885 198.109 46.1466 198.096 46.105 198.082L45.8733 198.006L45.7695 198.227L24.7414 242.955ZM36.3177 249.103L36.2052 249.345L36.4436 249.465L36.444 249.465C36.5245 249.506 36.6071 249.547 36.6889 249.587L36.9412 249.71L37.0594 249.455L58.8643 202.495L58.9949 202.213L58.7003 202.117C58.6721 202.107 58.6439 202.098 58.6148 202.088L58.6134 202.088C58.5582 202.069 58.4994 202.049 58.4389 202.031L58.209 201.96L58.1077 202.178L36.3177 249.103ZM50.0009 249.756L49.8047 250.186L50.2755 250.145C50.3272 250.14 50.3789 250.136 50.4294 250.131L50.4322 250.131L50.4146 249.945L50.4322 250.131C50.4839 250.126 50.5345 250.121 50.5847 250.117L50.745 250.103L50.8117 249.956L70.6923 206.4L70.8202 206.119L70.5275 206.023L70.2694 205.938L70.035 205.861L69.9326 206.086L50.0009 249.756ZM89.0948 209.073L88.8974 209.056L88.8183 209.237L73.5903 244.222L73.3298 244.82L73.9404 244.59L74.2835 244.46L74.3924 244.419L74.4389 244.312L89.5708 209.548L89.6738 209.312L89.4445 209.193L89.292 209.114L89.251 209.093L89.2053 209.087L89.1973 209.085C89.1704 209.082 89.1328 209.076 89.0948 209.073ZM100.568 214.885L100.68 214.641L100.439 214.523L100.197 214.405L99.9423 214.28L99.8246 214.538L87.2314 242.128L86.9947 242.647L87.5483 242.51C87.6577 242.483 87.7669 242.458 87.8781 242.432L88.01 242.401L88.0663 242.278L100.568 214.885ZM82.1659 209.602L81.9406 209.541L81.8437 209.754L64.1619 248.495L63.9239 249.016L64.48 248.876C64.5274 248.864 64.5703 248.855 64.6066 248.848C64.6478 248.842 64.6907 248.834 64.7314 248.828C64.7493 248.824 64.7668 248.821 64.7834 248.819L64.9279 248.795L64.9888 248.661L82.611 210.052L82.7463 209.756L82.4316 209.671C82.3856 209.659 82.3398 209.647 82.2955 209.636L82.295 209.636C82.2506 209.624 82.2079 209.613 82.1659 209.602ZM75.993 207.799L75.7615 207.727L75.6609 207.948L56.8486 249.167L56.6524 249.597L57.1232 249.556C57.2262 249.547 57.3275 249.539 57.4273 249.532L57.5906 249.52L57.6585 249.371L76.4231 208.258L76.551 207.978L76.2584 207.882C76.1726 207.854 76.085 207.827 76.002 207.801L75.993 207.799ZM64.1761 203.919L63.9417 203.842L63.8393 204.067L42.6315 250.532L42.4247 250.985L42.9184 250.92C42.9971 250.91 43.0759 250.901 43.1568 250.891C43.1803 250.889 43.2039 250.886 43.2278 250.883L43.382 250.865L43.4465 250.724L64.5969 204.382L64.7223 204.107L64.4373 204.007C64.3503 203.977 64.2617 203.948 64.1761 203.919ZM52.3192 200.05L52.0873 199.974L51.9836 200.195L30.6115 245.695L30.5143 245.902L30.6996 246.036C30.774 246.09 30.8531 246.146 30.9325 246.198L31.1985 246.374L31.3341 246.085L52.7416 200.511L52.8765 200.223L52.5732 200.13L52.5718 200.13C52.4854 200.103 52.4019 200.077 52.3192 200.05ZM39.9791 196.143L39.7475 196.067L39.6436 196.287L20.4171 237.106L20.3573 237.232L20.4247 237.355L20.5854 237.649L20.8457 238.124L21.0766 237.634L40.4012 196.604L40.5366 196.316L40.233 196.223C40.1462 196.196 40.0622 196.17 39.9791 196.143ZM7.27065 219.389L7.21575 219.505L7.26996 219.622L7.31961 219.729L7.31974 219.729C7.35314 219.801 7.38555 219.871 7.4164 219.94L7.66164 220.488L7.91744 219.945L21.601 190.892L21.7415 190.593L21.4229 190.508C21.3799 190.496 21.3371 190.484 21.293 190.472L21.2925 190.472C21.2489 190.46 21.2039 190.447 21.1581 190.435L20.9355 190.376L20.8374 190.584L7.27065 219.389Z" fill="#FEC96E" stroke="#FEC96E" stroke-width="0.551377"/>
<path d="M273.82 183.31C293.072 147.653 283.581 86.4826 257.404 56.1508C201.985 -8.0664 98.1452 5.00862 41.7859 68.9001C10.1956 104.712 -0.048882 165.636 34.9928 212.265C92.3977 288.605 229.141 266.095 273.82 183.31Z" fill="#52D2DD"/>
<path d="M103.276 67.9006C103.853 68.3518 104.43 68.8031 105.007 69.254C105.283 69.4695 104.895 69.8521 104.622 69.6387C104.045 69.1874 103.468 68.7361 102.892 68.2853C102.616 68.0697 103.003 67.6872 103.276 67.9006Z" fill="#1D1D1B"/>
<path d="M115.166 65.1418C115.166 65.1418 115.89 65.8581 115.852 67.7045C115.814 69.5509 115.623 70.2291 115.852 70.8319C116.081 71.4347 117.415 71.6984 117.377 73.3945C117.339 75.0901 115.89 75.3538 115.204 75.3918C114.517 75.4292 113.831 75.2035 113.641 75.279C113.45 75.3544 112.688 76.0326 112.039 76.56C111.391 77.0874 110.629 77.8036 110.4 77.9164C110.171 78.0293 110.21 78.2555 110.477 78.5572C110.743 78.8589 111.735 78.331 112.268 77.879C112.802 77.4271 113.831 76.5226 113.831 76.5226C113.831 76.5226 116.469 77.1187 117.796 75.1661C119.512 72.6415 117.339 71.0208 117.034 70.7197C116.729 70.4186 117.034 68.0816 116.843 66.9889C116.653 65.8961 116.271 64.9916 116.157 64.8407C116.043 64.6899 115.89 64.3508 115.509 64.539C115.128 64.7273 115.166 65.1418 115.166 65.1418Z" fill="#1D1D1B"/>
<path d="M114.722 69.8877C114.722 70.1964 114.472 70.4467 114.163 70.4467C113.854 70.4467 113.604 70.1964 113.604 69.8877C113.604 69.5789 113.854 69.3286 114.163 69.3286C114.472 69.3286 114.722 69.5789 114.722 69.8877Z" fill="#1D1D1B"/>
<path d="M106.655 58.3906C106.345 58.2991 105.996 58.2285 105.614 58.1881C105.824 57.7279 105.608 57.0759 104.961 57.1116C99.5233 57.4126 95.7408 61.1594 94.3875 66.3001C94.3511 66.4377 94.351 66.5639 94.3783 66.676C93.9789 68.4473 94.2172 70.1069 94.6638 71.5103C94.9763 72.9163 95.539 74.3071 96.3294 75.6341C96.7209 76.2925 97.61 75.9671 97.7359 75.3919L101.118 74.5463L101.641 70.2894C101.643 70.2844 101.646 70.2795 101.648 70.2745C101.809 69.9528 101.917 69.3556 102.022 68.7732C102.117 68.2506 102.209 67.74 102.336 67.4513C102.603 66.841 103.252 66.4976 103.825 66.5355C104.398 66.5734 105.506 66.7261 105.582 67.7947C105.659 68.8632 106.117 71.2667 108.37 71.1903C110.624 71.1139 111.158 70.1218 111.311 68.2523C111.362 67.6321 111.375 67.0539 111.386 66.5469C111.409 65.5256 111.425 64.7934 111.731 64.5897C111.842 64.5156 112.176 64.4731 112.654 64.4123C114.142 64.2226 117.022 63.8556 118.873 61.8044C121.317 59.0954 120.171 56.081 118.949 55.0895C117.727 54.0973 114.633 52.8381 111.425 54.4407C108.715 55.7945 107.286 57.5023 106.655 58.3906Z" fill="#1D1D1B"/>
<path d="M92.7565 141.782C92.7565 141.782 92.4537 145.663 92.6051 148.038C92.7565 150.412 94.0046 153.616 95.2146 155.387C96.4245 157.159 104.631 166.769 105.464 167.711C105.538 167.795 105.628 167.895 105.73 168.008L105.731 168.01C105.888 168.183 106.073 168.389 106.275 168.619H119.062L112.116 155.448L111.778 154.043C112.381 153.778 112.608 154.006 112.872 154.461C113.136 154.916 120.573 168.581 120.573 168.581C120.573 168.581 120.686 168.923 120.686 169.341C120.686 169.758 120.535 169.872 120.535 169.872H107.314C108.232 171.06 109.111 172.473 109.132 173.628C109.16 175.182 107.616 177.16 106.841 178.053L132.625 179.288C132.625 179.288 136.157 178.793 137.36 175.787C138.563 172.782 137.059 169.471 137.059 169.471L133.94 158.056C133.94 158.056 133.264 156.496 133.752 156.305C133.788 156.292 133.823 156.277 133.857 156.262C134.297 156.075 134.665 155.919 135.293 158.284C135.969 160.833 138.6 170.536 138.6 170.536C138.6 170.536 139.802 174.569 137.736 177.537C135.669 180.505 131.648 180.391 131.648 180.391L122.747 179.951L113.416 201.765C113.416 201.765 113.076 202.187 112.473 201.919C111.869 201.651 112.209 201.191 112.209 201.191L121.449 179.887L103.915 179.021L104.026 177.918L105.42 177.985C105.886 177.489 106.647 176.655 107.166 175.966C107.96 174.91 108.338 174.044 107.96 172.988C107.799 172.539 106.869 171.303 105.694 169.872H97.3201C97.3201 169.872 94.3004 170.061 93.3943 171.656C93.3003 171.821 93.2104 171.976 93.1249 172.124C92.3864 173.398 91.9796 174.1 92.1486 175.869C92.2367 176.791 92.4815 177.54 92.7366 178.319C92.9102 178.85 93.0885 179.395 93.2254 180.019H99.8141V181.137H93.4066C93.416 181.227 93.4245 181.318 93.4318 181.411C93.563 183.075 93.018 185.751 92.598 187.812C92.4145 188.713 92.255 189.496 92.1861 190.027C91.9594 191.773 91.6953 196.556 95.3188 196.746C98.9424 196.936 100.566 193.064 100.981 190.71C101.396 188.357 101.812 182.739 101.434 180.462C101.056 178.184 100.566 175.983 99.7354 174.54C98.9049 173.098 97.8478 171.656 97.8478 171.656C97.8478 171.656 97.3951 171.2 97.7722 170.934C98.1494 170.669 99.4332 170.972 100.603 173.553C101.774 176.135 102.981 180.765 102.68 185.396C102.377 190.027 101.396 198.416 95.2433 197.884C89.0907 197.353 90.9778 189.495 92.2991 185.207C93.0815 182.667 92.3152 180.406 91.6384 178.41C91.1722 177.035 90.7484 175.785 90.9022 174.655C91.28 171.884 92.7899 169.91 94.4128 169.302C96.0357 168.695 98.0744 168.619 98.0744 168.619H104.646C103.293 167.03 101.83 165.41 100.888 164.47C98.8075 162.397 93.74 155.652 92.5676 153.164C91.3952 150.676 91.1305 147.285 91.2819 145.4C91.4333 143.515 91.698 141.631 91.698 141.631L92.7565 141.782Z" fill="#1D1D1B"/>
<path fill-rule="evenodd" clip-rule="evenodd" d="M107.6 180.392L108.656 180.506L102.377 199.736L102.88 199.351C102.88 199.351 105.652 197.579 109.283 199.684C112.915 201.788 110.968 206.773 110.968 206.773C110.968 206.773 112.542 205.665 114.264 205.665C115.986 205.665 116.959 207.142 116.959 207.881L116.959 207.941C116.961 208.702 116.965 210.207 114.413 210.207C111.793 210.207 108.909 207.918 108.909 207.918C108.909 207.918 110.519 206.404 110.482 204.262C110.465 203.271 110.046 202.193 109.331 201.32C108.804 202.739 107.685 205.883 107.713 206.959C107.751 208.365 109.976 210.341 111.598 211.215C112.507 211.705 114.092 212.183 115.548 212.622C116.69 212.967 117.753 213.288 118.35 213.572C119.708 214.218 120.35 215.244 120.312 215.966C120.274 216.688 120.236 216.916 120.236 216.916H95.7175C95.5291 216.916 107.6 180.392 107.6 180.392ZM97.1514 215.738L101.782 201.557C102.64 200.686 104.08 199.573 105.802 199.573C106.916 199.573 107.894 199.996 108.663 200.643C108.067 201.822 106.764 204.625 106.619 206.845C106.431 209.733 110.58 212.166 111.636 212.698C112.243 213.004 114.01 213.423 115.553 213.789C116.694 214.059 117.712 214.301 118.049 214.446C118.841 214.788 119.067 215.738 119.067 215.738H97.1514ZM114.076 209.136C112.466 209.136 111.043 207.917 111.043 207.917C111.043 207.917 112.728 206.847 114.189 206.847C115.507 206.847 115.482 207.388 115.465 207.765C115.463 207.806 115.461 207.845 115.461 207.881C115.461 207.917 115.464 207.959 115.466 208.005C115.488 208.417 115.526 209.136 114.076 209.136Z" fill="#1D1D1B"/>
<path d="M122.736 117.965L133.171 153.93C119.754 154.365 91.3547 154.974 85.0934 153.93C77.2668 152.626 77.6395 145.358 77.8259 142.377C78.0122 139.395 81.7392 124.301 84.1617 112.375C86.0997 102.834 90.8081 86.162 92.92 79.0187H96.0879V76.5962L112.114 82.932L118.45 102.871L127.767 108.462C127.643 109.207 127.171 111.033 126.276 112.375C125.382 113.717 123.543 116.661 122.736 117.965Z" fill="#FFDB79"/>
<path d="M139.623 89.1813L139.529 89.6742C139.634 89.7198 139.7 89.7516 139.7 89.7516L137.578 100.288L137.509 100.279L137.441 100.635L132.556 99.7164C133.425 98.977 134.072 98.0579 134.101 97.2563C134.137 96.2866 133.654 96.2443 132.882 96.1767C132.846 96.1736 132.81 96.1705 132.774 96.1672C131.94 96.092 129.134 96.9556 127.352 97.8571C126.227 98.4254 125.887 99.0986 125.733 99.4051C125.698 99.4739 125.673 99.5243 125.65 99.5508C125.576 99.5067 125.531 99.4719 125.531 99.4719C125.583 99.5743 125.613 99.5932 125.65 99.5508C125.901 99.7013 126.489 99.9606 126.783 99.3221C127.011 98.8271 127.292 98.7363 127.897 98.5413C128.302 98.4108 128.852 98.2335 129.627 97.8571C131.561 96.9183 133.192 96.9556 133.192 96.9556C133.192 96.9556 133.381 97.219 133.229 97.6695C133.112 98.0186 132.197 98.7291 131.403 99.3458C131.173 99.5247 130.952 99.6957 130.765 99.8478C129.931 100.524 129.324 101.2 129.21 101.914C129.117 102.497 128.695 102.88 128.109 103.41C127.978 103.529 127.839 103.655 127.694 103.792C126.897 104.543 126.366 105.482 126.594 105.745C126.821 106.008 127.466 105.707 127.466 105.707C127.466 105.707 128.527 104.844 129.248 104.017C129.734 103.46 129.823 103.022 129.899 102.646C129.936 102.465 129.97 102.298 130.044 102.139C130.093 102.033 130.148 101.922 130.215 101.805C131.831 102.209 136.851 103.428 137.631 103.22C138.562 102.972 139.286 101.381 139.286 101.381C139.286 101.381 141.769 88.6584 141.459 87.9129C141.149 87.1674 138.303 86.521 136.544 86.1733C134.785 85.8256 132.819 85.4779 132.25 85.9747C131.681 86.4715 131.319 87.9624 131.319 87.9624C131.319 87.9624 131.893 88.0742 132.731 88.2385L132.922 87.5906L139.623 89.1813Z" fill="#1D1D1B"/>
<path d="M130.269 92.8487L130.956 89.2554L132.389 89.5267L131.139 96.1902L129.56 96.5612L130.005 94.231C129.145 94.5205 126.747 95.4858 124.277 97.8998C121.19 100.917 120.437 102.161 120.136 102.727C119.836 103.292 119.195 102.01 119.195 102.01C119.195 102.01 121.417 98.9179 123.412 97.1075C125.407 95.297 126.499 94.5428 127.628 93.9775C128.584 93.4986 129.891 92.9927 130.269 92.8487Z" fill="#1D1D1B"/>
<path d="M127.489 107.197C127.489 107.197 127.232 107.82 127.563 108.039C127.894 108.258 129.44 107.71 130.543 107.197C130.75 107.101 130.98 106.999 131.219 106.891C132.255 106.428 133.48 105.879 133.928 105.403C134.48 104.818 134.848 103.353 134.848 103.353L133.928 103.244C133.928 103.244 134.075 103.756 133.376 104.379C132.677 105.001 131.72 105.44 130.322 106.063C128.925 106.684 127.489 107.197 127.489 107.197Z" fill="#1D1D1B"/>
<path d="M81.7998 153.589L89.0718 133.549C89.5633 132.194 91.1179 131.052 92.5433 130.999L119.767 129.98C121.193 129.927 121.95 130.982 121.458 132.337L114.186 152.377C113.695 153.732 112.14 154.874 110.715 154.927L83.4911 155.945C82.0655 155.999 81.3082 154.944 81.7998 153.589Z" fill="white"/>
<path d="M102.051 143.868C103.286 143.868 104.287 142.866 104.287 141.631C104.287 140.396 103.286 139.395 102.051 139.395C100.816 139.395 99.8145 140.396 99.8145 141.631C99.8145 142.866 100.816 143.868 102.051 143.868Z" fill="#1D1D1B"/>
<path d="M82.3881 155.347C89.1966 155.511 96.0052 155.676 102.814 155.84C103.477 155.856 103.584 154.825 102.915 154.808C96.1069 154.644 89.2984 154.479 82.4899 154.316C81.827 154.3 81.718 155.332 82.3881 155.347Z" fill="black"/>
<path d="M82.3881 155.347L82.3907 155.241L82.3905 155.241L82.3881 155.347ZM102.814 155.84L102.816 155.734L102.816 155.734L102.814 155.84ZM102.915 154.808L102.918 154.702L102.918 154.702L102.915 154.808ZM82.4899 154.316L82.4924 154.21L82.4923 154.21L82.4899 154.316ZM82.3856 155.453C85.7898 155.535 89.1941 155.617 92.5983 155.7C96.0026 155.782 99.4068 155.864 102.811 155.946L102.816 155.734C99.412 155.652 96.0077 155.57 92.6034 155.488C89.1992 155.405 85.7949 155.323 82.3907 155.241L82.3856 155.453ZM102.811 155.946C103.211 155.956 103.439 155.646 103.469 155.347C103.485 155.197 103.452 155.039 103.36 154.915C103.265 154.788 103.115 154.707 102.918 154.702L102.913 154.914C103.05 154.918 103.137 154.971 103.19 155.042C103.245 155.116 103.269 155.218 103.258 155.326C103.236 155.543 103.079 155.74 102.816 155.734L102.811 155.946ZM102.918 154.702C99.5137 154.62 96.1095 154.538 92.7052 154.456C89.301 154.374 85.8967 154.291 82.4924 154.21L82.4873 154.422C85.8916 154.503 89.2958 154.586 92.7001 154.668C96.1043 154.75 99.5086 154.832 102.913 154.914L102.918 154.702ZM82.4923 154.21C82.0922 154.2 81.8642 154.511 81.8337 154.809C81.8183 154.959 81.8507 155.117 81.9432 155.241C82.0378 155.368 82.1882 155.449 82.3857 155.453L82.3905 155.241C82.253 155.238 82.1657 155.184 82.1131 155.114C82.0582 155.041 82.0336 154.939 82.0446 154.831C82.0668 154.613 82.2247 154.415 82.4875 154.422L82.4923 154.21Z" fill="black"/>
<path d="M94.8133 100.821C93.2359 110.517 92.2632 121.898 91.8013 130.114C92.0631 130.016 92.407 129.943 92.8526 129.941C93.6804 129.936 103.488 129.974 111.314 130.005C111.29 129.081 111.259 128.108 111.222 127.096H112.07C112.108 128.11 112.138 129.083 112.162 130.009C117.12 130.028 121.081 130.045 121.081 130.045C121.081 130.045 122.169 130.073 122.452 130.909C122.734 131.744 122.287 132.572 122.287 132.572L115.934 150.284L115.028 149.955L121.423 132.332C121.423 132.332 121.811 131.666 121.582 131.29C121.352 130.913 121.082 130.852 120.244 130.841C119.405 130.83 93.1026 130.765 93.1026 130.765C93.1026 130.765 92.4734 130.683 92.0529 130.934C91.9085 131.02 91.8106 131.097 91.7443 131.161C91.7163 131.692 91.6906 132.208 91.6672 132.707C91.6562 132.941 91.4576 133.121 91.2236 133.11C90.9896 133.099 90.8088 132.901 90.8198 132.667C91.2098 124.367 92.2178 111.492 93.976 100.685C94.8545 95.2844 95.9237 90.3793 97.2045 86.8158C97.844 85.0366 98.5456 83.5651 99.3197 82.5306C100.088 81.5039 100.988 80.8307 102.032 80.8307C103.064 80.8307 103.952 81.4501 104.707 82.4146C105.464 83.3818 106.137 84.7569 106.741 86.4193C107.95 89.7486 108.918 94.34 109.684 99.4247C110.422 104.321 110.976 109.696 111.375 114.879L110.521 114.843C110.124 109.708 109.575 104.392 108.845 99.5511C108.082 94.4829 107.124 89.9579 105.944 86.7088C105.353 85.0821 104.716 83.8026 104.039 82.9375C103.36 82.0697 102.69 81.679 102.032 81.679C101.385 81.679 100.705 82.095 99.9989 83.0389C99.2983 83.975 98.6307 85.3557 98.0028 87.1028C96.7487 90.5918 95.6894 95.4356 94.8133 100.821Z" fill="black"/>
<path d="M107.173 102.047C106.866 101.146 106.8 100.955 106.284 101.039C106.284 101.039 105.846 101.355 105.992 102.167C106.044 102.456 106.184 103.092 106.357 103.878C106.672 105.311 107.098 107.242 107.3 108.484C107.614 110.407 108.398 113.149 109.082 114.026C109.767 114.904 110.922 115.223 111.543 115.207C112.165 115.192 121.272 114.852 121.272 114.852C121.272 114.852 123.082 123.068 123.456 124.668C123.83 126.269 124.415 128.143 124.93 128.018C125.36 127.913 125.187 127.145 124.945 126.075C124.897 125.862 124.847 125.637 124.797 125.403C124.501 123.994 122.622 115.101 122.276 113.474C122.256 113.38 122.237 113.29 122.219 113.205C121.928 111.829 121.897 111.686 121.412 111.804C120.896 111.929 121.135 113.554 121.135 113.554C121.135 113.554 114.597 113.699 113.22 113.7C113.086 113.7 112.958 113.701 112.837 113.702C111.721 113.708 111.153 113.711 110.53 113.163C109.84 112.556 109.661 112.039 109.023 110.164C108.681 109.16 108.353 107.413 108.052 105.806C107.791 104.412 107.55 103.123 107.336 102.517C107.274 102.342 107.22 102.186 107.173 102.047Z" fill="#1D1D1B"/>
<path d="M92.729 110.504C92.4526 109.285 93.6683 109.132 93.0362 109.58C93.0362 109.58 92.6359 110.203 92.7898 110.371C92.8203 110.404 92.7894 110.445 92.729 110.504Z" fill="#1D1D1B"/>
<path d="M92.729 110.504C92.7142 110.518 92.6976 110.534 92.6798 110.55C92.4027 110.808 91.8133 111.355 92.6635 112.748C93.1223 113.499 93.1578 113.54 93.1876 113.585C93.2311 113.651 93.2624 113.725 94.5822 116.029C96.8053 119.912 102.547 125.517 104.61 126.767C106.674 128.018 113.942 128.366 116.43 128.405C118.919 128.444 122.767 127.959 122.784 127.531C122.802 127.103 122.465 126.847 121.847 126.897C121.229 126.948 115.382 127.203 113.783 127.019C113.539 126.991 113.206 126.957 112.811 126.917C110.617 126.692 106.503 126.27 105.032 125.609C103.298 124.83 99.9149 121.132 96.7725 116.804C94.662 113.897 94.1852 113.249 93.7745 112.562C93.5736 112.226 93.3886 111.881 93.0362 111.257C92.8743 110.97 92.7781 110.72 92.729 110.504Z" fill="#1D1D1B"/>
<path d="M213.837 142.761H169.479C169.479 142.761 163.726 142.505 160.573 149.678C157.419 156.851 155.332 168.635 154.65 171.026C153.968 173.417 153.627 176.619 150.261 177.302C146.895 177.985 143.316 177.43 141.611 177.643C139.907 177.857 139.608 178.711 139.608 178.882C139.608 179.052 142.548 180.846 144.721 181.315C146.894 181.785 152.264 182.34 152.264 182.34L151.71 183.621L156.184 185.244C156.184 185.244 159.422 177.815 159.763 177.302C160.104 176.79 159.465 176.363 159.124 176.192C158.783 176.021 156.44 175.167 156.44 175.167L160.36 175.039L165.004 159.157C165.004 159.157 166.964 150.917 171.95 149.721C176.936 148.525 180.557 149.977 182.858 151.728C185.159 153.479 190.102 158.431 190.102 158.431H199.946C199.946 158.431 206.103 158.111 210.897 153.307C215.691 148.504 213.837 142.761 213.837 142.761Z" fill="#1D1D1B"/>
<path d="M188.385 158.26H178.705L168.259 183.592L162.375 183.506L166.255 185.13C166.255 185.13 164.506 191.324 162.033 193.93C159.56 196.536 154.401 199.655 152.312 198.544C150.222 197.433 150.99 195.554 151.544 194.828C152.098 194.101 156.319 189.872 157.514 187.693C158.707 185.514 163.1 170.221 163.142 170.007C163.185 169.793 167.108 156.636 167.108 156.636C167.108 156.636 168.899 151.552 172.779 150.612C176.659 149.673 180.368 151.125 182.159 152.449C183.951 153.774 188.385 158.26 188.385 158.26Z" fill="#1D1D1B"/>
<path d="M213.325 163.845C213.704 166.331 215.375 177.137 216.818 184.238C218.457 192.306 219.97 197.173 221.147 196.874C222.324 196.575 221.484 186.117 220.937 181.848C220.391 177.58 218.289 163.493 218.289 163.493C218.289 163.493 221.399 163.536 221.399 160.804C221.399 158.92 219.601 158.254 218.181 157.728C217.542 157.491 216.979 157.283 216.692 157.004C215.767 156.108 215.305 155.553 216.229 154.358C217.154 153.163 225.519 138.136 225.519 127.379C225.519 116.681 220.405 112.358 219.853 111.891L219.844 111.884C219.34 111.457 216.818 109.92 216.482 109.792C216.145 109.664 215.683 109.664 215.557 110.091C215.431 110.518 216.02 110.817 217.028 111.329C218.037 111.841 224.51 115.939 224.51 127.422C224.51 138.566 218.612 148.302 217.726 149.765C217.699 149.81 217.676 149.846 217.659 149.875C217.553 150.051 217.394 150.291 217.203 150.576C216.33 151.886 214.801 154.178 214.801 155.894C214.801 157.886 216.782 158.368 217.407 158.521L217.451 158.531L217.49 158.541C217.995 158.669 220.475 159.822 220.475 160.846C220.475 161.871 219.508 162.212 218.962 162.297C218.415 162.383 217.196 162.511 217.196 162.511C217.196 162.511 219.382 177.409 220.181 183.385C220.979 189.361 221.022 194.825 220.643 194.953C220.265 195.081 217.743 184.196 216.356 176C215.263 169.543 214.719 165.339 214.536 163.845H215.449V162.586H203.805V163.215H203.777C203.777 163.215 203.777 175.88 203.821 182.683C203.865 189.485 202.936 194.791 202.671 194.791C202.406 194.791 201.256 185.292 200.991 179.516C200.764 174.586 200.538 166.197 200.476 163.845H202.232V162.586H179.259V163.845H181.195C181.031 165.275 180.643 168.776 180.575 170.488C180.522 171.823 179.707 176.953 179.012 181.322C178.572 184.094 178.18 186.56 178.062 187.557C177.759 190.123 176.285 195.385 176.069 195.385C175.852 195.385 175.722 194.615 175.765 193.033C175.788 192.21 176.103 187.222 176.412 182.318C176.699 177.779 176.98 173.313 177.022 172.284L177.033 172.014C177.118 169.934 177.216 167.557 176.762 167.493C176.324 167.432 176.293 168.238 176.244 169.496C176.225 169.981 176.203 170.534 176.155 171.129C176.09 171.927 175.971 173.834 175.83 176.106C175.592 179.922 175.289 184.769 175.072 187.128C174.725 190.893 174.639 196.711 175.982 196.882C177.325 197.053 178.235 192.818 179.534 185.759C180.683 179.52 181.799 166.73 182.042 163.845H189.16C189.049 166.244 188.651 174.929 188.471 179.88C188.26 185.663 188.302 196.972 190.202 196.887C192.101 196.801 193.494 182.407 193.747 177.438C194.001 172.468 194.296 165.186 193.705 165.143C193.196 165.106 193.031 169.557 192.888 173.448C192.865 174.071 192.842 174.68 192.819 175.253C192.65 179.408 190.962 195.43 190.202 195.473C189.442 195.516 189.4 188.147 189.442 181.722C189.479 176.143 189.961 166.333 190.087 163.845H199.415C199.472 166.116 199.688 174.125 200.063 181.057C200.505 189.229 201.3 196.844 202.627 196.887C203.953 196.93 204.661 188.415 204.661 183.239C204.661 178.699 204.729 166.724 204.745 163.845H213.325Z" fill="#1D1D1B"/>
<path d="M209.056 101.536H205.335C205.335 101.536 205.334 106.896 200.928 107.832C196.522 108.768 193.613 106.641 193.613 106.641L189.763 105.79L188.181 104.641L187.368 104.514L185.956 104.088L184.801 103.067C184.801 103.067 184.074 103.578 183.261 104.301C182.448 105.025 182.406 106.854 182.406 106.854V115.277H189.55C191.475 115.277 191.774 117.83 191.774 117.83L198.49 139.782C198.49 139.782 207.046 139.655 207.302 139.782C207.559 139.91 207.773 140.718 207.773 140.718V142.76H214.061C214.061 142.76 214.061 142.705 214.062 142.599H217.922L217.933 142.538C220.142 130.69 222.465 118.234 217.368 108.805C216.172 106.599 214.794 104.952 213.283 103.79C211.81 101.513 209.056 101.536 209.056 101.536Z" fill="#E34192"/>
<path fill-rule="evenodd" clip-rule="evenodd" d="M199.714 83.1263C199.714 84.7582 199.15 86.2552 198.21 87.4239C198.715 87.4392 199.078 87.4584 199.239 87.4819C200.128 87.6114 203.239 88.1296 203.43 92.3395C203.515 94.2218 203.498 95.5991 203.454 96.5468L203.459 96.5468C203.804 96.5468 204.282 96.5891 204.674 96.8933C205.08 97.2079 205.333 97.7525 205.333 98.6209C205.333 99.0688 205.235 99.4296 205.067 99.7144C204.898 99.9995 204.666 100.193 204.421 100.321C203.942 100.57 203.406 100.569 203.128 100.519C203.004 100.496 202.879 100.458 202.76 100.412C202.445 101.088 201.449 103.131 200.501 104.062C198.237 106.286 195.076 106.885 193.88 106.885C192.684 106.885 190.164 106.286 189.822 106.158C189.481 106.03 189.737 105.388 189.737 105.388C189.899 105.226 190.257 105.314 190.829 105.455C191.615 105.648 192.803 105.94 194.436 105.816C197.255 105.602 199.818 103.72 200.971 101.924C201.357 101.322 201.83 100.246 201.963 99.9365V98.3648C201.382 98.3954 200.644 98.4042 199.816 98.3456L196.873 101.85L196.869 101.835C196.725 103.606 195.306 104.997 193.577 104.997C192.205 104.997 191.028 104.121 190.529 102.873C189.957 103.947 188.789 104.683 187.441 104.683C185.828 104.683 184.472 103.63 184.088 102.204L183.794 102.48L183.665 98.074H184.438L184.51 99.6185C185.123 98.6905 186.207 98.074 187.441 98.074C188.849 98.074 190.061 98.8768 190.601 100.029C191.136 98.8721 192.268 98.074 193.577 98.074C195.057 98.074 196.31 99.0937 196.731 100.499L198.765 98.2374C197.069 98.0065 195.147 97.463 193.461 96.2903C189.27 93.3757 188.698 90.526 188.698 90.526C188.698 90.526 187.746 92.1452 186.286 94.0882C184.825 96.0312 183.873 97.0675 183.873 97.0675C183.873 97.0675 182.92 93.311 183.047 91.2384C183.172 89.2083 185.002 87.5511 188.001 87.4231C187.061 86.2546 186.497 84.7579 186.497 83.1263C186.497 79.3896 189.456 76.3604 193.106 76.3604C196.755 76.3604 199.714 79.3896 199.714 83.1263ZM202.501 97.8383V99.6814C202.679 99.7934 202.968 99.9436 203.224 99.9902C203.418 100.026 203.826 100.025 204.173 99.8443C204.341 99.7567 204.493 99.6282 204.604 99.4405C204.716 99.2524 204.796 98.9898 204.796 98.6209C204.796 97.8557 204.577 97.4975 204.345 97.3177C204.1 97.1276 203.775 97.0839 203.459 97.0839C203.296 97.0839 203.1 97.1861 202.899 97.3689C202.731 97.5212 202.59 97.7021 202.501 97.8383ZM184.888 101.378C184.888 102.724 186.031 103.815 187.441 103.815C188.851 103.815 189.994 102.724 189.994 101.378C189.994 100.032 188.851 98.9409 187.441 98.9409C186.03 98.9409 184.888 100.032 184.888 101.378ZM193.577 104.088C192.232 104.088 191.14 102.945 191.14 101.535C191.14 100.125 192.231 98.9821 193.577 98.9821C194.923 98.9821 196.014 100.125 196.014 101.535C196.014 102.945 194.923 104.088 193.577 104.088Z" fill="#1D1D1B"/>
<path d="M207.776 106.225C207.968 106.102 208.024 105.846 207.9 105.654C207.777 105.462 207.521 105.407 207.329 105.53C205.739 106.552 205.267 108.378 205.353 110.469C205.439 112.565 206.088 115.048 206.883 117.561C207.274 118.798 207.704 120.052 208.124 121.278L208.148 121.348C208.577 122.598 208.994 123.819 209.355 124.974C210.082 127.304 210.55 129.295 210.434 130.679C210.253 132.854 208.608 134.745 206.503 136.247C204.7 137.533 202.626 138.486 201.053 139.044H199.407L192.992 115.783L190.587 114.438H157.71L155.972 115.783V117.665L163.456 142.54L166.798 144.019H210.099V139.044H203.25C204.468 138.49 205.781 137.778 206.983 136.919C209.146 135.376 211.045 133.295 211.258 130.748C211.389 129.181 210.866 127.043 210.144 124.728C209.779 123.56 209.358 122.328 208.93 121.08L208.907 121.015C208.486 119.785 208.059 118.539 207.671 117.312C206.878 114.805 206.26 112.412 206.178 110.435C206.097 108.453 206.556 107.009 207.776 106.225Z" fill="white"/>
<path d="M176.427 133.634C178.687 133.634 180.518 131.873 180.518 129.7C180.518 127.528 178.687 125.767 176.427 125.767C174.168 125.767 172.336 127.528 172.336 129.7C172.336 131.873 174.168 133.634 176.427 133.634Z" fill="#E34192"/>
<path d="M180.833 114.438V115.629H157.649C157.649 115.629 156.712 115.459 156.371 115.885C156.03 116.31 156.073 116.651 156.413 117.629C156.754 118.608 163.488 140.65 163.488 140.65C163.488 140.65 163.658 141.415 164.127 141.798C164.596 142.181 164.809 142.139 164.809 142.139L164.212 143.075C164.212 143.075 163.231 142.905 162.635 141.288C162.039 139.671 155.135 116.991 155.135 116.991C155.135 116.991 154.709 115.715 155.561 115.034C156.413 114.353 157.564 114.523 157.564 114.523L180.833 114.438Z" fill="#1D1D1B"/>
</svg>
